<svg xmlns="http://www.w3.org/2000/svg" width="20" height="20" viewBox="0 0 20 20"><g transform="translate(-423.152)"><rect width="20" height="20" transform="translate(423.152)" fill="#175dec" opacity="0"/><path d="M8.042,2.271c.171-.364.257-.546.373-.6a.356.356,0,0,1,.32,0c.116.058.2.24.373.6l1.624,3.451a.861.861,0,0,0,.113.2.374.374,0,0,0,.115.088.781.781,0,0,0,.219.05l3.632.557c.383.059.574.088.662.186a.4.4,0,0,1,.1.319c-.017.134-.155.275-.432.558l-2.628,2.684a.843.843,0,0,0-.149.175.4.4,0,0,0-.044.143.893.893,0,0,0,.022.234l.62,3.791c.065.4.1.6.037.719a.373.373,0,0,1-.259.2c-.127.025-.3-.07-.64-.259L8.851,13.576a.8.8,0,0,0-.205-.095.353.353,0,0,0-.143,0,.793.793,0,0,0-.205.095L5.05,15.367c-.342.189-.514.283-.64.259a.373.373,0,0,1-.259-.2c-.061-.119-.029-.319.037-.719l.62-3.791a.892.892,0,0,0,.022-.234.4.4,0,0,0-.044-.143.841.841,0,0,0-.149-.175L2.01,7.683c-.277-.283-.415-.424-.432-.558a.4.4,0,0,1,.1-.319c.089-.1.28-.127.662-.186l3.632-.557a.78.78,0,0,0,.219-.05A.373.373,0,0,0,6.3,5.925a.862.862,0,0,0,.113-.2Z" transform="translate(424.578 1.371)" fill="#111"/></g></svg>