<svg xmlns="http://www.w3.org/2000/svg" width="100.983" height="101" viewBox="0 0 100.983 101"><g transform="translate(0.983 1)"><rect width="100" height="100" fill="none"/><path d="M87.936,76.173c-5.453-7.119-14.284-12.949-26.857-16.3-2.178-.744-3.03-3.421-.264-5C71.01,50.55,78.129,41.123,78.129,29.791,78.129,14.443,65.088,2,49,2S19.872,14.443,19.872,29.791A27.7,27.7,0,0,0,36.508,54.875c2.952,1.336,2.851,4.348.3,5C14.4,65.9,3.932,80.066,2.214,96.529" transform="translate(-1 -1)" fill="none" stroke="#111" stroke-linecap="round" stroke-linejoin="round" stroke-width="4"/><g transform="translate(-3 -4)"><path d="M105.986,86.806a20,20,0,1,1-20-20,20,20,0,0,1,20,20" transform="translate(-2.986 -2.807)" fill="#175dec"/><path d="M79.407,88.871l6,7,12-14" transform="translate(-5.406 -4.871)" fill="none" stroke="#fff" stroke-linecap="round" stroke-linejoin="round" stroke-width="4"/></g></g></svg>