<svg xmlns="http://www.w3.org/2000/svg" width="24" height="24" viewBox="0 0 24 24"><g transform="translate(-52 -2.793)"><rect width="24" height="24" transform="translate(52 2.793)" fill="#175dec" opacity="0"/><g transform="translate(-1025.355 -2850.742)"><path d="M1086.355,2871.742v1.286a1.784,1.784,0,0,0,1.846,1.714h8.308a1.784,1.784,0,0,0,1.846-1.714v-14.572a1.784,1.784,0,0,0-1.846-1.714H1088.2a1.783,1.783,0,0,0-1.846,1.714v1.286" transform="translate(0 -0.207)" fill="none" stroke="#111" stroke-linecap="round" stroke-linejoin="round" stroke-width="2"/><g transform="translate(0 -0.207)"><path d="M1088.355,2869.742l3.1-2.342a1.982,1.982,0,0,0,0-3.316l-3.1-2.342" fill="none" stroke="#111" stroke-linecap="round" stroke-linejoin="round" stroke-width="2"/><line x1="12" transform="translate(1080.355 2865.742)" fill="none" stroke="#111" stroke-linecap="round" stroke-linejoin="round" stroke-width="2"/></g></g></g></svg>