<svg xmlns="http://www.w3.org/2000/svg" width="56" height="56" viewBox="0 0 56 56"><circle cx="28" cy="28" r="28" fill="#111"/><g transform="translate(12 12)"><rect width="32" height="32" fill="#ec1d32" opacity="0"/><g transform="translate(4 2)"><path d="M24.045,16.873a6.31,6.31,0,0,1,3.181-5.323,7.029,7.029,0,0,0-5.385-2.782c-2.3-.22-4.484,1.286-5.645,1.286S13.234,8.8,11.333,8.84a7.275,7.275,0,0,0-6.1,3.506c-2.6,4.286-.668,10.635,1.87,14.11,1.236,1.7,2.71,3.611,4.647,3.542,1.87-.068,2.575-1.146,4.832-1.146S19.474,30,21.45,29.969c2.007-.039,3.282-1.74,4.507-3.441A15.174,15.174,0,0,0,28,22.542a6.235,6.235,0,0,1-3.955-5.669" transform="translate(-4 -2)" fill="#fff"/><path d="M20.331,6.469A5.946,5.946,0,0,0,21.866,2a6.723,6.723,0,0,0-4.338,2.119,5.689,5.689,0,0,0-1.567,4.336,5.582,5.582,0,0,0,4.37-1.986" transform="translate(-4 -2)" fill="#fff"/></g></g></svg>