<svg xmlns="http://www.w3.org/2000/svg" width="24" height="24" viewBox="0 0 24 24"><g transform="translate(-423.152)"><rect width="24" height="24" transform="translate(423.152)" fill="#175dec" opacity="0"/><path d="M10.813,2.546c.244-.52.367-.779.533-.862a.508.508,0,0,1,.457,0c.166.083.288.343.533.862l2.32,4.93a1.23,1.23,0,0,0,.161.29.534.534,0,0,0,.165.126,1.115,1.115,0,0,0,.312.071l5.189.8c.546.084.82.126.946.266a.574.574,0,0,1,.141.455c-.024.191-.222.393-.617.8L17.2,14.112a1.2,1.2,0,0,0-.213.25.575.575,0,0,0-.063.2,1.275,1.275,0,0,0,.032.334l.886,5.416c.093.571.14.857.052,1.026a.533.533,0,0,1-.369.282c-.181.035-.425-.1-.915-.37L11.969,18.7a1.135,1.135,0,0,0-.293-.135.5.5,0,0,0-.2,0,1.134,1.134,0,0,0-.293.135L6.54,21.255c-.489.27-.734.4-.914.37a.533.533,0,0,1-.369-.282c-.088-.169-.041-.455.052-1.026L6.194,14.9a1.274,1.274,0,0,0,.032-.334.575.575,0,0,0-.063-.2,1.2,1.2,0,0,0-.213-.25L2.2,10.277c-.4-.4-.593-.606-.617-.8a.574.574,0,0,1,.141-.455c.126-.14.4-.182.946-.266l5.189-.8a1.115,1.115,0,0,0,.312-.071.533.533,0,0,0,.165-.126,1.231,1.231,0,0,0,.161-.29Z" transform="translate(423.578 0.37)" fill="#111"/></g></svg>