<svg xmlns="http://www.w3.org/2000/svg" width="24" height="24" viewBox="0 0 24 24"><rect width="24" height="24" fill="#175dec" opacity="0"/><path d="M9.994,2.916a4.907,4.907,0,0,0-7.055-.741,5.331,5.331,0,0,0-.8,7.4,83.589,83.589,0,0,0,7.387,7.16,1.036,1.036,0,0,0,.34.245.455.455,0,0,0,.257,0,1.036,1.036,0,0,0,.34-.245,83.59,83.59,0,0,0,7.387-7.16,5.293,5.293,0,0,0-.8-7.4A4.92,4.92,0,0,0,9.994,2.916Z" transform="translate(2 4)" fill="#111" stroke="#111" stroke-linecap="round" stroke-linejoin="round" stroke-width="2" fill-rule="evenodd"/></svg>