<svg xmlns="http://www.w3.org/2000/svg" width="70" height="70" viewBox="0 0 70 70"><rect width="70" height="70" fill="#e50025" opacity="0"/><g transform="translate(-1 1)"><path d="M7.781,7H7.728A5.789,5.789,0,0,0,2,12.849v7.937A18.735,18.735,0,0,0,20.538,39.714,18.735,18.735,0,0,0,39.076,20.787V12.849A5.789,5.789,0,0,0,33.348,7h-.707" transform="translate(0 0.271)" fill="none" stroke="#111" stroke-linecap="round" stroke-linejoin="round" stroke-width="2"/><path d="M14,10.543H10.726A3.036,3.036,0,0,1,8,7.271,3.036,3.036,0,0,1,10.726,4H14a3.036,3.036,0,0,1,2.726,3.271A3.036,3.036,0,0,1,14,10.543Z" transform="translate(0.543)" fill="#d9d9d9" stroke="#111" stroke-linecap="round" stroke-linejoin="round" stroke-width="2"/><path d="M28,10.543H24.726A3.036,3.036,0,0,1,22,7.271,3.036,3.036,0,0,1,24.726,4H28a3.036,3.036,0,0,1,2.726,3.271A3.036,3.036,0,0,1,28,10.543Z" transform="translate(2.764)" fill="#d9d9d9" stroke="#111" stroke-linecap="round" stroke-linejoin="round" stroke-width="2"/><path d="M58.438,24V42.108A20.937,20.937,0,0,1,37.719,63.257,20.937,20.937,0,0,1,17,42.108V39.266" transform="translate(3.852 1.743)" fill="none" stroke="#111" stroke-linecap="round" stroke-linejoin="round" stroke-width="2"/><ellipse cx="8" cy="7.5" rx="8" ry="7.5" transform="translate(54 9.533)" fill="#d9d9d9" stroke="#111" stroke-linecap="round" stroke-linejoin="round" stroke-width="2"/></g></svg>