<svg xmlns="http://www.w3.org/2000/svg" width="112" height="112" viewBox="0 0 112 112"><g transform="translate(-0.245 -0.245)"><rect width="112" height="112" transform="translate(0.245 0.245)" fill="#e50025" opacity="0"/><path d="M0,0H16a0,0,0,0,1,0,0V21A16,16,0,0,1,0,37H0a0,0,0,0,1,0,0V0A0,0,0,0,1,0,0Z" transform="translate(75.245 4.245)" fill="#fed2a4"/><path d="M0,0H16a0,0,0,0,1,0,0V9A16,16,0,0,1,0,25H0a0,0,0,0,1,0,0V0A0,0,0,0,1,0,0Z" transform="translate(80.245 4.245)" fill="#fed2a4"/><path d="M0,0H0A16,16,0,0,1,16,16V39a0,0,0,0,1,0,0H0a0,0,0,0,1,0,0V0A0,0,0,0,1,0,0Z" transform="translate(76.245 69.245)" fill="#fed2a4"/><path d="M64.914,2v8.832c0,8.554-7.612,17.015-9.756,24.831A95.572,95.572,0,0,0,52.022,65.32q.036.733.084,1.466" transform="translate(31.331 0.245)" fill="none" stroke="#111" stroke-linecap="round" stroke-linejoin="round" stroke-width="2"/><rect width="53" height="104" transform="translate(31.245 4.245)" fill="#fed2a4"/><rect width="49" height="104" transform="translate(35.245 4.245)" fill="#fed2a4"/><path d="M26.933,2S2.542,22.961,28.559,29.41c0,0-40.652,37.085-1.626,74.17l-1.626,4.837" transform="translate(6.245 0.245)" fill="#fed2a4" stroke="#111" stroke-linecap="round" stroke-linejoin="round" stroke-width="2"/><path d="M51.9,42.388,62.075,61s5.084,6.769-1.7,25.384" transform="translate(31.34 23.857)" fill="#fed2a4" stroke="#111" stroke-linecap="round" stroke-linejoin="round" stroke-width="2"/><g transform="translate(16.245 2.245)"><path d="M26.933,2S2.542,22.961,28.559,29.41c0,0-40.652,37.085-1.626,74.17l-1.626,4.837" transform="translate(-10 -2)" fill="none" stroke="#111" stroke-linecap="round" stroke-linejoin="round" stroke-width="2"/><path d="M64.914,2v8.832c0,8.554-7.612,17.015-9.756,24.831A95.572,95.572,0,0,0,52.022,65.32q.036.733.084,1.466" transform="translate(15.086 -2)" fill="none" stroke="#111" stroke-linecap="round" stroke-linejoin="round" stroke-width="2"/><path d="M51.9,42.388,62.075,61s5.084,6.769-1.7,25.384" transform="translate(15.095 21.612)" fill="none" stroke="#111" stroke-linecap="round" stroke-linejoin="round" stroke-width="2"/><path d="M63.47,60.974C55.719,76.746,39.583,84.947,27.433,79.287S11.713,56.252,19.464,40.48,43.35,16.507,55.5,22.167,71.22,45.2,63.47,60.974Z" transform="translate(-6.743 11.092)" fill="#fe646f" stroke="#111" stroke-linecap="round" stroke-linejoin="round" stroke-width="2"/><path d="M41.983,47.4a9.44,9.44,0,0,1-2.558,9.292,10.071,10.071,0,0,1-13.971,0,9.441,9.441,0,0,1,0-13.6A10.063,10.063,0,0,1,35,40.6" transform="translate(-2.492 22.603)" fill="#fed2a4" stroke="#111" stroke-linecap="round" stroke-linejoin="round" stroke-width="2"/><path d="M32.285,50.14s4.879-5.385-3.253-8.975c0,0-3.251-12.567,1.626-12.567s6.505,8.975,6.505,8.975,9.756-3.59,8.13,8.977L38.789,57.32" transform="translate(0.748 15.171)" fill="#fed2a4" stroke="#111" stroke-linecap="round" stroke-linejoin="round" stroke-width="2"/></g></g></svg>