<svg xmlns="http://www.w3.org/2000/svg" width="112" height="112" viewBox="0 0 112 112"><g transform="translate(0.127 0.127)"><rect width="112" height="112" transform="translate(-0.127 -0.127)" fill="#e50025" opacity="0"/><g transform="translate(-2.553 -2.917)"><path d="M0,0H42a0,0,0,0,1,0,0V35a8,8,0,0,1-8,8H0a0,0,0,0,1,0,0V0A0,0,0,0,1,0,0Z" transform="translate(59.425 60.789)" fill="#ffdcd5"/><path d="M9,0H33a9,9,0,0,1,9,9V59a9,9,0,0,1-9,9H0a0,0,0,0,1,0,0V9A9,9,0,0,1,9,0Z" transform="translate(57.425 43.789)" fill="#ffdcd5"/><rect width="44" height="60" rx="14" transform="translate(13.425 51.789)" fill="#ffdcd5"/><path d="M14,0H44a0,0,0,0,1,0,0V81a0,0,0,0,1,0,0H0a0,0,0,0,1,0,0V14A14,14,0,0,1,14,0Z" transform="translate(20.425 30.789)" fill="#ffdcd5"/><rect width="66" height="94" transform="translate(25.425 6.789)" fill="#ffdcd5"/><path d="M14.707,3a40.343,40.343,0,0,1-1.682,35.33" transform="translate(8.542 1.789)" fill="none" stroke="#1a1718" stroke-linecap="round" stroke-linejoin="round" stroke-width="2"/><path d="M11.374,34S.409,71.94,16.074,90.91" transform="translate(4.869 21.588)" fill="none" stroke="#1a1718" stroke-linecap="round" stroke-linejoin="round" stroke-width="2"/><path d="M4.025,31,20.692,46l8.333-8.333L14.025,21Z" transform="translate(2.4 15.192)" fill="#7dd9c2" stroke="#1a1718" stroke-linecap="round" stroke-linejoin="round" stroke-width="2"/><line x2="11" y2="11" transform="translate(27.425 56.789)" fill="none" stroke="#1a1718" stroke-linecap="round" stroke-linejoin="round" stroke-width="2"/><path d="M8,0,0,8" transform="translate(35.425 63.789)" fill="none" stroke="#1a1718" stroke-linecap="round" stroke-width="2"/><path d="M76.211,23.094,59.387,38.236l-8.412-8.412L66.116,13Z" transform="translate(34.215 8.68)" fill="#7dd9c2" stroke="#1a1718" stroke-linecap="round" stroke-linejoin="round" stroke-width="2"/><line x1="11.777" y2="11.777" transform="translate(76.831 43.616)" fill="none" stroke="#1a1718" stroke-linecap="round" stroke-linejoin="round" stroke-width="2"/><line x2="8.328" y2="8.328" transform="translate(71.886 52.051)" fill="none" stroke="#1a1718" stroke-linecap="round" stroke-linejoin="round" stroke-width="2"/><path d="M56.136,3s-4.5,12.5,0,25" transform="translate(36.289 1.789)" fill="none" stroke="#1a1718" stroke-linecap="round" stroke-linejoin="round" stroke-width="2"/><path d="M58.72,27s15.256,38.359-1.7,68" transform="translate(37.4 17.789)" fill="none" stroke="#1a1718" stroke-linecap="round" stroke-linejoin="round" stroke-width="2"/><path d="M27.025,51,40.2,61l14.824-8.571" transform="translate(17.981 35.871)" fill="none" stroke="#1a1718" stroke-linecap="round" stroke-linejoin="round" stroke-width="2"/><line y2="14" transform="translate(58.425 97.789)" fill="none" stroke="#1a1718" stroke-linecap="round" stroke-linejoin="round" stroke-width="2"/></g></g></svg>