<svg xmlns="http://www.w3.org/2000/svg" width="54" height="54" viewBox="0 0 54 54"><g transform="translate(-318 -2157)"><rect width="54" height="54" transform="translate(318 2157)" fill="red" opacity="0"/><g transform="translate(323 2161)"><line x2="38" transform="translate(3 41)" stroke="#fff" stroke-linecap="round" stroke-linejoin="round" stroke-width="2"/><g transform="translate(3 2)" fill="none" stroke-linecap="round" stroke-linejoin="round"><path d="M27.889,2H10.111C4.778,2,3,5.4,3,9.6V40H35V9.6C35,5.4,33.222,2,27.889,2Z" stroke="none"/><path d="M 10.11111068725586 4 C 8.225790023803711 4 6.917440414428711 4.485069274902344 6.111309051513672 5.482929229736328 C 5.3739013671875 6.395709991455078 5 7.780891418457031 5 9.599998474121094 L 5 38 L 33 38 L 33 9.599998474121094 C 33 7.780891418457031 32.6260986328125 6.395709991455078 31.88869094848633 5.482929229736328 C 31.08255958557129 4.485069274902344 29.77420997619629 4 27.88888931274414 4 L 10.11111068725586 4 M 10.11111068725586 2 L 27.88888931274414 2 C 33.22222137451172 2 35 5.402900695800781 35 9.599998474121094 L 35 40 L 3 40 L 3 9.599998474121094 C 3 5.402900695800781 4.777778625488281 2 10.11111068725586 2 Z" stroke="none" fill="#fff"/></g><g transform="translate(15.923 26)" fill="none" stroke="#fff" stroke-linecap="round" stroke-linejoin="round" stroke-width="2"><path d="M.935,0H13.065A.935.935,0,0,1,14,.935V16a0,0,0,0,1,0,0H0a0,0,0,0,1,0,0V.935A.935.935,0,0,1,.935,0Z" stroke="none"/><path d="M1.065,1H12.935A.065.065,0,0,1,13,1.065V15a0,0,0,0,1,0,0H1a0,0,0,0,1,0,0V1.065A.065.065,0,0,1,1.065,1Z" fill="none"/></g><g transform="translate(17.305 11.492)"><line y2="11" transform="translate(5.625)" fill="none" stroke="#fff" stroke-linecap="round" stroke-linejoin="round" stroke-width="2"/><line x2="11.25" transform="translate(0 5.125)" fill="none" stroke="#fff" stroke-linecap="round" stroke-linejoin="round" stroke-width="2"/></g></g></g></svg>