<svg xmlns="http://www.w3.org/2000/svg" width="54" height="54" viewBox="0 0 54 54"><g transform="translate(-318 -2157)"><rect width="54" height="54" transform="translate(318 2157)" fill="red" opacity="0"/><g transform="translate(319 2162)"><path d="M24.123,19.225q-2.337-.282-4.639-.791L13,17" transform="translate(0.112 1.666)" fill="none" stroke="#fff" stroke-linecap="round" stroke-linejoin="round" stroke-width="2"/><path d="M37.572,16.775l-5.481,1.24A40.153,40.153,0,0,1,22,18.981" transform="translate(1.123 1.641)" fill="none" stroke="#fff" stroke-linecap="round" stroke-linejoin="round" stroke-width="2"/><path d="M38.348,23l-3.791.64c-2.577.435-7.644,2.047-9.557,12.708" transform="translate(1.46 2.316)" fill="none" stroke="#fff" stroke-linecap="round" stroke-linejoin="round" stroke-width="2"/><path d="M22,27a47.106,47.106,0,0,1,3.337,12.235" transform="translate(1.123 2.765)" fill="none" stroke="#fff" stroke-linecap="round" stroke-linejoin="round" stroke-width="2"/><path d="M12.25,25l4.369.4a14.76,14.76,0,0,1,6.2,1.82" transform="translate(0.028 2.554)" fill="none" stroke="#fff" stroke-linecap="round" stroke-linejoin="round" stroke-width="2"/><path d="M14.225,12a31.662,31.662,0,0,0-2.007,15.346l2.007,13.5" transform="translate(0 1.08)" fill="none" stroke="#fff" stroke-linecap="round" stroke-linejoin="round" stroke-width="2"/><path d="M16.225,2V5.28A15.437,15.437,0,0,1,14,13.123" transform="translate(0.225)" fill="none" stroke="#fff" stroke-linecap="round" stroke-linejoin="round" stroke-width="2"/><path d="M34,2V5.331A20.982,20.982,0,0,0,36.225,14.7a20.878,20.878,0,0,1,2.088,11.738L36.51,42" transform="translate(2.471)" fill="none" stroke="#fff" stroke-linecap="round" stroke-linejoin="round" stroke-width="2"/><line y2="0.856" transform="translate(25.894 15.101)" fill="none" stroke="#fff" stroke-linecap="round" stroke-linejoin="round" stroke-width="2"/></g></g></svg>