<svg xmlns="http://www.w3.org/2000/svg" width="70" height="70" viewBox="0 0 70 70"><rect width="70" height="70" fill="#e50025" opacity="0"/><path d="M20.537,2S5.359,14.806,21.549,18.746c0,0-25.3,22.657-1.012,45.314l-1.012,2.955" fill="none" stroke="#111" stroke-linecap="round" stroke-linejoin="round" stroke-width="2"/><path d="M60,2V7.5c0,5.323-4.737,10.588-6.071,15.452A59.473,59.473,0,0,0,51.978,41.4q.022.456.052.912" fill="none" stroke="#111" stroke-linecap="round" stroke-linejoin="round" stroke-width="2"/><path d="M51.9,42.388l6,10.836s3,3.94-1,14.776" fill="none" stroke="#111" stroke-linecap="round" stroke-linejoin="round" stroke-width="2"/><path d="M45.3,45.639c-4.823,9.815-14.864,14.918-22.425,11.4S13.093,42.7,17.916,32.886,32.78,17.968,40.341,21.49,50.123,35.824,45.3,45.639Z" fill="none" stroke="#111" stroke-linecap="round" stroke-linejoin="round" stroke-width="2"/><path d="M34.647,44.705a5.874,5.874,0,0,1-1.592,5.782,6.267,6.267,0,0,1-8.694,0,5.875,5.875,0,0,1,0-8.464,6.262,6.262,0,0,1,5.939-1.55" fill="#d9d9d9" stroke="#111" stroke-linecap="round" stroke-linejoin="round" stroke-width="2"/><path d="M30.656,40.418s3.036-2.955-2.024-4.925c0,0-2.023-6.9,1.012-6.9s4.048,4.925,4.048,4.925,6.071-1.97,5.059,4.926L34.7,44.358" fill="#d9d9d9" stroke="#111" stroke-linecap="round" stroke-linejoin="round" stroke-width="2"/></svg>