<svg xmlns="http://www.w3.org/2000/svg" xmlns:xlink="http://www.w3.org/1999/xlink" width="64" height="64" viewBox="0 0 64 64"><defs><clipPath id="a"><rect width="52.167" height="59.152" transform="translate(0 0)" fill="none"/></clipPath></defs><rect width="64" height="64" fill="red" opacity="0"/><g transform="translate(5.917 2.424)"><g clip-path="url(#a)"><path d="M45.333,29.5V7.333A6.334,6.334,0,0,0,39,1H7.333A6.333,6.333,0,0,0,1,7.333V51.667A6.333,6.333,0,0,0,7.333,58H25.6" fill="none" stroke="#111" stroke-linecap="round" stroke-linejoin="round" stroke-width="2"/><line x1="22.167" transform="translate(10.5 13.667)" fill="none" stroke="#111" stroke-linecap="round" stroke-linejoin="round" stroke-width="2"/><line x1="15.833" transform="translate(10.5 26.333)" fill="none" stroke="#111" stroke-linecap="round" stroke-linejoin="round" stroke-width="2"/><line x1="6.333" transform="translate(10.5 39)" fill="none" stroke="#111" stroke-linecap="round" stroke-linejoin="round" stroke-width="2"/><circle cx="12.326" cy="12.326" r="12.326" transform="translate(26.515 33.5)" fill="none" stroke="#2abfb0" stroke-linecap="round" stroke-linejoin="round" stroke-width="2"/><path d="M44.841,43.826h-4v-4h-4v4h-4v4h4v4h4v-4h4Z" fill="none" stroke="#2abfb0" stroke-linecap="round" stroke-linejoin="round" stroke-width="2"/></g></g></svg>