<svg xmlns="http://www.w3.org/2000/svg" xmlns:xlink="http://www.w3.org/1999/xlink" width="112" height="112" viewBox="0 0 112 112"><defs><clipPath id="a"><path d="M82.587,84.7C70.567,98.228,51.035,98.228,51.035,98.228a48.114,48.114,0,1,1,48.08-48.113s0,13.53-7.513,18.041" transform="translate(-2.957 -2)" fill="none" stroke="#111" stroke-linecap="round" stroke-linejoin="round" stroke-width="2"/></clipPath></defs><rect width="112" height="112" fill="#e50025" opacity="0"/><g transform="translate(3.208 3.208)"><ellipse cx="48" cy="47.5" rx="48" ry="47.5" transform="translate(-0.208 -0.207)" fill="#cfedff"/><path d="M57.919,48v1.678A1.468,1.468,0,0,1,56.3,50.9h-.524c-2.355,0-4.265,1.44-4.265,3.219V76.855c0,1.779,1.909,3.22,4.265,3.22H72.9c2.355,0,4.265-1.442,4.265-3.22V54.123c0-1.779-1.909-3.219-4.265-3.219h-.522c-.9,0-1.625-.55-1.625-1.227V48" transform="translate(28.683 25.775)" fill="#fff" stroke="#111" stroke-linecap="round" stroke-linejoin="round" stroke-width="2"/><path d="M49.4.867l10.538,5.01L68.266,7.5l3.464.738.811-1.328L70.4,5.582s-4.053-1.77-4.348-1.916-7.664-2.8-7.664-2.8S53.159.5,52.2.35A8.069,8.069,0,0,0,49.4.867Z" fill="#7dd9c2"/><path d="M89.01,32.076,81.717,71.434l10.212-7.6,3.114-5.977,1.245-8.719L95.043,37.434,93.4,31.744Z" fill="#7dd9c2"/><path d="M10.742,18.643,2.323,34.78.056,43.11V54.043l.81,3.816H2.323s3.724-3.99,3.886-7.113,5.343-25.683,5.343-25.683Z" transform="translate(0 -2)" fill="#7dd9c2"/><g clip-path="url(#a)"><path d="M0,32.075V30.1C0,27.16,2.855,16.064,6.374,16.064H7c3.506,0,6.36-2.39,6.36-5.329V5.329C13.359,2.393,16.215,0,19.721,0h.624a7.018,7.018,0,0,1,4.507,1.562,4.925,4.925,0,0,1,1.866,3.765c0,2.936,2.838,5.329,6.36,5.329h.626c3.517,0,6.36,2.381,6.36,5.317V30.41" transform="translate(22.505 65.152)" fill="#7dd9c2"/></g><path d="M0,0H22a0,0,0,0,1,0,0V16a3,3,0,0,1-3,3H3a3,3,0,0,1-3-3V0A0,0,0,0,1,0,0Z" transform="translate(81.792 84.793)" fill="#d9d9d9"/><path d="M13.383,12.789h9.025a6.388,6.388,0,0,1,6.616,6.11v.6a5.893,5.893,0,0,1-1.941,4.33,6.879,6.879,0,0,1-4.675,1.793,6.382,6.382,0,0,0-6.629,6.11v.6a6.382,6.382,0,0,0,6.629,6.11h6.72a6.394,6.394,0,0,1,6.629,6.123v.6a6.392,6.392,0,0,1-6.629,6.11H3.681" transform="translate(-2.008 4.853)" fill="#7dd9c2" stroke="#111" stroke-linecap="round" stroke-linejoin="round" stroke-width="2"/><path d="M69.239,61.943H66.38c-4.241,0-7.681-2.856-7.681-6.378V54.94c0-3.509-3.453-6.365-7.694-6.365H43.189c-4.241,0-7.694-2.858-7.694-6.367v-.625a5.859,5.859,0,0,1,2.256-4.51A8.544,8.544,0,0,1,43.189,35.2c4.241,0,7.692-2.845,7.692-6.365v-.627c0-3.52,3.44-6.365,7.681-6.365H73.986" transform="translate(17.43 10.228)" fill="#7dd9c2" stroke="#111" stroke-linecap="round" stroke-linejoin="round" stroke-width="2"/><path d="M35.533,2h-2.4a6.854,6.854,0,0,0-4.714,1.876,6.306,6.306,0,0,0-1.951,4.534,6.54,6.54,0,0,0,6.664,6.421H55.226a6.82,6.82,0,0,0,4.712-1.875A6.371,6.371,0,0,0,61.751,9.7" transform="translate(12.054 -1.999)" fill="#7dd9c2" stroke="#111" stroke-linecap="round" stroke-linejoin="round" stroke-width="2"/><line x2="24" transform="translate(80.792 84.793)" fill="none" stroke="#111" stroke-linecap="round" stroke-linejoin="round" stroke-width="2"/><line y2="8" transform="translate(92.792 91.793)" fill="none" stroke="#111" stroke-linecap="round" stroke-linejoin="round" stroke-width="2"/><line x2="8.019" transform="translate(89.01 95.426)" fill="none" stroke="#111" stroke-linecap="round" stroke-linejoin="round" stroke-width="2"/><path d="M25.308,38.491H23.164A5.951,5.951,0,0,1,17.4,32.368v-.6a5.956,5.956,0,0,0-5.77-6.11H5.77A5.957,5.957,0,0,1,0,19.546v-.6a6.283,6.283,0,0,1,1.692-4.33A5.6,5.6,0,0,1,5.77,12.823a5.948,5.948,0,0,0,5.769-6.11v-.6A5.941,5.941,0,0,1,17.3,0H28.868" transform="translate(62.592 64.152) rotate(90)" fill="none" stroke="#111" stroke-linecap="round" stroke-linejoin="round" stroke-width="2"/><path d="M82.645,84.7C70.616,98.228,51.07,98.228,51.07,98.228A48.114,48.114,0,1,1,99.185,50.115s0,13.53-7.518,18.041" transform="translate(-2.957 -2)" fill="none" stroke="#111" stroke-linecap="round" stroke-linejoin="round" stroke-width="2"/><rect width="26" height="6" rx="1.884" transform="translate(79.792 65.793)" fill="#fff" stroke="#111" stroke-linecap="round" stroke-linejoin="round" stroke-width="2"/></g></svg>