<svg xmlns="http://www.w3.org/2000/svg" width="70" height="70" viewBox="0 0 70 70"><rect width="70" height="70" fill="#e50025" opacity="0"/><g transform="translate(-0.185)"><path d="M17.757,0a1,1,0,0,0-.25.39L10.585,20.165.293,30.458a1,1,0,0,0,0,1.414l3.585,3.586a1,1,0,0,0,1.415,0L15.585,25.165,35.37,18.241A1,1,0,0,0,35.747,18" transform="translate(2.185 32.225)" fill="#d9d9d9"/><path d="M19.649,32.465,12.745,52.5,2.477,62.924a1.023,1.023,0,0,0,0,1.432l3.577,3.633a.986.986,0,0,0,1.411,0L17.733,57.562l19.736-7.014a1,1,0,0,0,.376-.24l26.047-26.45a1.024,1.024,0,0,0-.02-1.453L47.354,6.563a.985.985,0,0,0-1.377.007L19.9,32.07A1.017,1.017,0,0,0,19.649,32.465Z" transform="translate(0 -0.286)" fill="none" stroke="#111" stroke-linecap="round" stroke-linejoin="round" stroke-width="2"/><path d="M46.347,6.2c4.912-5.059,13.014-5.623,18.1-1.259s5.22,12,.309,17.063" transform="translate(-0.162)" fill="none" stroke="#111" stroke-linecap="round" stroke-linejoin="round" stroke-width="2"/><line x2="17" y2="18" transform="translate(19.861 32.225)" fill="none" stroke="#111" stroke-miterlimit="10" stroke-width="2"/><path d="M33.63,36.678h0a4.169,4.169,0,0,1,.025-5.873L45.392,19.11a4.118,4.118,0,0,1,5.843.026,4.168,4.168,0,0,1-.026,5.873L39.474,36.7A4.117,4.117,0,0,1,33.63,36.678Z" transform="translate(-0.837 0.175)" fill="#d9d9d9" stroke="#111" stroke-miterlimit="10" stroke-width="2"/><line x2="6" y2="6" transform="translate(39.185 25)" fill="none" stroke="#111" stroke-miterlimit="10" stroke-width="2"/></g></svg>