<svg xmlns="http://www.w3.org/2000/svg" width="112" height="112" viewBox="0 0 112 112"><rect width="112" height="112" fill="#e50025" opacity="0"/><g transform="translate(3.609 8.02)"><path d="M81.74,9.972C70.279,1.127,55.477,3.658,46.483,13.42,37.491,3.658,22.5,1.032,11.228,9.972S-1.627,33.858,7.221,44.431c6.684,7.987,25.67,24.018,34.562,31.386,1.634,1.354,2.451,2.032,3.409,2.3a4.907,4.907,0,0,0,2.585,0c.956-.266.914-.949,3.031-2.3S67,58.49,67,58.49s12.548-20.372,16.234-32.5S81.74,9.972,81.74,9.972Z" transform="translate(-1.535 -4.5)" fill="#ed7678"/><path d="M1,1v9.4a3.275,3.275,0,0,0,3.1,3.436h9.822A3.294,3.294,0,0,0,17.041,10.4V1" transform="translate(67.174 68.778)" fill="#fff" stroke="#1a1718" stroke-linecap="round" stroke-linejoin="round" stroke-width="2"/><circle cx="28.874" cy="28.874" r="28.874" transform="translate(47.321 12.833)" fill="#d9d9d9" stroke="#111" stroke-linecap="round" stroke-linejoin="round" stroke-width="2"/><circle cx="6.416" cy="6.416" r="6.416" transform="translate(69.778 36.092)" fill="#fff" stroke="#111" stroke-linecap="round" stroke-linejoin="round" stroke-width="2"/><path d="M54.863,57.5v9.9a3.221,3.221,0,0,1-6.416,0V57.5" transform="translate(24.54 25.913)" fill="#767676" stroke="#111" stroke-linecap="round" stroke-linejoin="round" stroke-width="2"/><path d="M81.74,9.972C70.279,1.127,55.477,3.658,46.483,13.42,37.491,3.658,22.5,1.032,11.228,9.972S-1.627,33.858,7.221,44.431c6.684,7.987,25.67,24.018,34.562,31.386,1.634,1.354,2.451,2.032,3.409,2.3a4.907,4.907,0,0,0,2.585,0c.956-.266,1.773-.945,3.409-2.3" transform="translate(-1.535 -4.5)" fill="none" stroke="#111" stroke-linecap="round" stroke-linejoin="round" stroke-width="2"/><path d="M7.536,27.749S7.536,10.1,23.577,8.5" transform="translate(2.088 -2.084)" fill="none" stroke="#111" stroke-linecap="round" stroke-linejoin="round" stroke-width="2"/><line x2="6.416" transform="translate(48.925 41.707)" fill="none" stroke="#111" stroke-linecap="round" stroke-linejoin="round" stroke-width="2"/><line x2="6.416" transform="translate(98.652 41.707)" fill="none" stroke="#111" stroke-linecap="round" stroke-linejoin="round" stroke-width="2"/><line y1="6.416" transform="translate(76.195 13.635)" fill="none" stroke="#111" stroke-linecap="round" stroke-linejoin="round" stroke-width="2"/><line y1="6.416" transform="translate(76.195 63.362)" fill="none" stroke="#111" stroke-linecap="round" stroke-linejoin="round" stroke-width="2"/><line y1="8.021" x2="8.021" transform="translate(81.007 29.676)" fill="none" stroke="#111" stroke-linecap="round" stroke-linejoin="round" stroke-width="2"/></g></svg>