<svg xmlns="http://www.w3.org/2000/svg" xmlns:xlink="http://www.w3.org/1999/xlink" width="64" height="64" viewBox="0 0 64 64"><defs><clipPath id="a"><rect width="59" height="59" fill="none"/></clipPath></defs><rect width="64" height="64" fill="red" opacity="0"/><g transform="translate(3 2.055)"><g clip-path="url(#a)"><path d="M58,15.821c0-5.188,0-7.781-1.035-9.764a9.389,9.389,0,0,0-4.152-4.048C50.781,1,48.121,1,42.8,1H16.2C10.879,1,8.219,1,6.187,2.009A9.384,9.384,0,0,0,2.035,6.057C1,8.04,1,10.633,1,15.821V32.495c0,5.188,0,7.782,1.035,9.764a9.384,9.384,0,0,0,4.152,4.048c2.032,1.01,4.692,1.01,10.013,1.01h7.968a20.647,20.647,0,0,1,3.91.189,9.675,9.675,0,0,1,2.412.825,20.2,20.2,0,0,1,3.174,2.233l7.553,5.894C42.535,57.486,43.194,58,43.748,58a1.6,1.6,0,0,0,1.239-.581c.346-.423.346-1.245.346-2.891V47.317A24.38,24.38,0,0,0,50.959,47a9.384,9.384,0,0,0,6.717-6.55A22.632,22.632,0,0,0,58,34.965Z" fill="none" stroke="#111" stroke-linecap="round" stroke-linejoin="round" stroke-width="2"/><path d="M20.731,20.147V15.762m17.538,4.385V15.762" fill="none" stroke="#2abfb0" stroke-linecap="round" stroke-linejoin="round" stroke-width="2"/><path d="M20.731,30.036c5.023,5.846,12.516,5.846,17.538,0" fill="none" stroke="#2abfb0" stroke-linecap="round" stroke-linejoin="round" stroke-width="2"/></g></g></svg>