<svg xmlns="http://www.w3.org/2000/svg" width="54" height="54" viewBox="0 0 54 54"><g transform="translate(-318 -2157)"><rect width="54" height="54" transform="translate(318 2157)" fill="red" opacity="0"/><g transform="translate(325 2164)"><rect width="40" height="40" fill="#e50025" opacity="0"/><line y1="4" transform="translate(15 2)" fill="none" stroke="#fff" stroke-linecap="round" stroke-linejoin="round" stroke-width="2"/><line y1="4" transform="translate(25 2)" fill="none" stroke="#fff" stroke-linecap="round" stroke-linejoin="round" stroke-width="2"/><path d="M29.887,18V38h-20V18" fill="none" stroke="#fff" stroke-linecap="round" stroke-linejoin="round" stroke-width="2"/><path d="M14.887,6l5,2,5-2" fill="none" stroke="#fff" stroke-linecap="round" stroke-linejoin="round" stroke-width="2"/><path d="M15,6,4.959,10.31A4.231,4.231,0,0,0,2,14.082V24H9" fill="none" stroke="#fff" stroke-linecap="round" stroke-linejoin="round" stroke-width="2"/><path d="M4,24V38h6" fill="none" stroke="#fff" stroke-linecap="round" stroke-linejoin="round" stroke-width="2"/><path d="M25,6l10.041,4.31A4.231,4.231,0,0,1,38,14.082V24H31" fill="none" stroke="#fff" stroke-linecap="round" stroke-linejoin="round" stroke-width="2"/><path d="M36,24V38H30" fill="none" stroke="#fff" stroke-linecap="round" stroke-linejoin="round" stroke-width="2"/><line x1="10" transform="translate(15 2)" fill="none" stroke="#fff" stroke-linecap="round" stroke-linejoin="round" stroke-width="2"/><circle cx="5" cy="5" r="5" transform="translate(15 24)" fill="none" stroke="#fff" stroke-linecap="round" stroke-linejoin="round" stroke-width="2"/><path d="M20,29Z" fill="none" stroke="#fff" stroke-linecap="round" stroke-linejoin="round" stroke-width="4"/></g></g></svg>