<svg xmlns="http://www.w3.org/2000/svg" xmlns:xlink="http://www.w3.org/1999/xlink" width="64" height="64" viewBox="0 0 64 64"><defs><clipPath id="a"><rect width="59.677" height="54.029" transform="translate(0 0)" fill="none"/></clipPath></defs><rect width="64" height="64" fill="red" opacity="0"/><g transform="translate(2.161 4.986)"><g clip-path="url(#a)"><path d="M5.932,3.79H5.887A4.938,4.938,0,0,0,1,8.779v6.769A15.981,15.981,0,0,0,16.813,31.693,15.98,15.98,0,0,0,32.624,15.549V8.779A4.937,4.937,0,0,0,27.739,3.79h-.6" fill="none" stroke="#111" stroke-linecap="round" stroke-linejoin="round" stroke-width="2"/><path d="M11.7,6.581H8.907A2.591,2.591,0,0,1,6.581,3.79,2.591,2.591,0,0,1,8.907,1H11.7a2.59,2.59,0,0,1,2.325,2.79A2.59,2.59,0,0,1,11.7,6.581Z" fill="none" stroke="#111" stroke-linecap="round" stroke-linejoin="round" stroke-width="2"/><path d="M24.666,6.581H21.874A2.591,2.591,0,0,1,19.548,3.79,2.591,2.591,0,0,1,21.874,1h2.792a2.59,2.59,0,0,1,2.325,2.79A2.59,2.59,0,0,1,24.666,6.581Z" fill="none" stroke="#111" stroke-linecap="round" stroke-linejoin="round" stroke-width="2"/><path d="M52.424,19.545V34.99A17.857,17.857,0,0,1,34.752,53.028,17.857,17.857,0,0,1,17.08,34.99V32.566" fill="none" stroke="#111" stroke-linecap="round" stroke-linejoin="round" stroke-width="2"/><circle cx="6.5" cy="6.5" r="6.5" transform="translate(45.677 5.616)" fill="none" stroke="#2abfb0" stroke-linecap="round" stroke-linejoin="round" stroke-width="2"/></g></g></svg>