<svg xmlns="http://www.w3.org/2000/svg" xmlns:xlink="http://www.w3.org/1999/xlink" width="70" height="70.033" viewBox="0 0 70 70.033"><defs><clipPath id="a"><rect width="30.597" height="17.679" transform="translate(0 0)" fill="#d9d9d9"/></clipPath></defs><g transform="translate(0 0.033)"><rect width="70" height="70" fill="#e50025" opacity="0"/><g transform="translate(1 -1)"><g transform="translate(33.403 50.108)"><g clip-path="url(#a)"><path d="M4.216,0,25.3,4.16C35.835,10.4,27.4,17.679,27.4,17.679H0v-5.2L22.134,10.4H7.378C-1.054,9.36,3.162,0,3.162,0" fill="#d9d9d9"/></g></g><path d="M37.619,50.108l21.08,4.16c10.539,6.24,2.108,13.519,2.108,13.519H33.4v-5.2l22.134-2.08H40.781c-8.432-1.04-4.216-10.4-4.216-10.4v-10.4l-6.324-9.359,12.648-9.36a7.138,7.138,0,0,0,4.216,4.16s10.54,1.04,3.162,9.36c0,0,22.133,2.08,8.432,18.719" fill="none" stroke="#111" stroke-linecap="round" stroke-linejoin="round" stroke-width="2"/><path d="M27.761,43.027,19.252,53.146a2.566,2.566,0,0,0,.344,3.646,2.648,2.648,0,0,0,3.695-.34L31.8,46.333" fill="none" stroke="#111" stroke-linecap="round" stroke-linejoin="round" stroke-width="2"/><line y1="12.48" x2="2.108" transform="translate(28.134 30.349)" fill="none" stroke="#111" stroke-linecap="round" stroke-linejoin="round" stroke-width="2"/><line y1="9.36" x2="2.108" transform="translate(32.35 36.589)" fill="none" stroke="#111" stroke-linecap="round" stroke-linejoin="round" stroke-width="2"/><path d="M52.375,38.669s5.27-1.04,6.324,7.28" fill="none" stroke="#111" stroke-linecap="round" stroke-linejoin="round" stroke-width="2"/><path d="M20.756,19.95l7.378,7.28L39.728,15.79,26.026,3.311s-1.054,8.319-4.216,10.4Z" fill="none" stroke="#111" stroke-linecap="round" stroke-linejoin="round" stroke-width="2"/><path d="M26.026,3.31s-10.54-7.28-13.7,12.48c0,0,0,7.279,8.432,4.159" fill="none" stroke="#111" stroke-linecap="round" stroke-linejoin="round" stroke-width="2"/><path d="M18.648,9.55l-5.27,9.36,4.216-2.08" fill="none" stroke="#111" stroke-linecap="round" stroke-linejoin="round" stroke-width="2"/><path d="M26.026,26.093a4.256,4.256,0,0,1-5.96-.167,4.121,4.121,0,0,1,.17-5.881" fill="none" stroke="#111" stroke-linecap="round" stroke-linejoin="round" stroke-width="2"/><path d="M14.73,18.951c-2.87-1.337-5.808-1.845-7.4-1.282s-1.771,2.177-.452,4.064a30.819,30.819,0,0,0,2.868,3.19,9.608,9.608,0,0,1,2.264,3.109c.384,1.239-.58,2-2.342,1.852a9.516,9.516,0,0,0,6.029,1.5A2.355,2.355,0,0,0,18,28.911a6.489,6.489,0,0,0-1.512-3.152c-.825-1.127-1.819-2.277-2.574-3.393a2.454,2.454,0,0,1-.618-1.565c.1-.409.739-.582,1.611-.25" transform="translate(-2)" fill="none" stroke="#111" stroke-linecap="round" stroke-linejoin="round" stroke-width="2"/><path d="M30.743,16.614a3.8,3.8,0,0,0,3.82-1.11,3.683,3.683,0,0,0,.67-3.874" fill="none" stroke="#111" stroke-linecap="round" stroke-linejoin="round" stroke-width="2"/><line y1="2.08" x2="2.108" transform="translate(27.08 10.59)" fill="none" stroke="#111" stroke-linecap="round" stroke-linejoin="round" stroke-width="2"/><path d="M33.4,62.588s-3.162-1.04-5.27,1.04l-4.216,2.08s-2.108,3.12,9.486,2.08" fill="none" stroke="#111" stroke-linecap="round" stroke-linejoin="round" stroke-width="2"/></g></g></svg>