<svg xmlns="http://www.w3.org/2000/svg" xmlns:xlink="http://www.w3.org/1999/xlink" width="64" height="64" viewBox="0 0 64 64"><defs><clipPath id="a"><rect width="59" height="59" fill="none"/></clipPath></defs><rect width="64" height="64" fill="red" opacity="0"/><g transform="translate(3 2.055)"><g clip-path="url(#a)"><path d="M13.667,13.667V4.619c0-2,2.363-3.619,5.278-3.619H40.056c2.915,0,5.278,1.621,5.278,3.619v9.048" fill="none" stroke="#111" stroke-linecap="round" stroke-linejoin="round" stroke-width="2"/><path d="M53.043,39C55.78,39,58,37.11,58,34.778V20c0-3.5-3.329-6.333-7.435-6.333H8.434C4.328,13.667,1,16.5,1,20V34.778C1,37.11,3.219,39,5.956,39" fill="none" stroke="#111" stroke-linecap="round" stroke-linejoin="round" stroke-width="2"/><path d="M7.333,32.667V52.04c0,3.292,2.335,5.96,5.216,5.96h33.9c2.88,0,5.215-2.668,5.215-5.96V32.667Z" fill="none" stroke="#2abfb0" stroke-linejoin="round" stroke-width="2"/><line x1="6.333" transform="translate(39 23.167)" fill="none" stroke="#111" stroke-linecap="round" stroke-linejoin="round" stroke-width="2"/></g></g></svg>