<svg xmlns="http://www.w3.org/2000/svg" width="112" height="112" viewBox="0 0 112 112"><rect width="112" height="112" fill="#e50025" opacity="0"/><g transform="translate(3.209 6.419)"><path d="M66.584,23.9C66.584,12.91,56.139,4,43.256,4S19.928,12.91,19.928,23.9c0,7.254,4.566,13.582,11.364,17.059a16.65,16.65,0,0,0-5.143,12.025A16.825,16.825,0,0,0,36.257,68.339V103.5H51.81V67.551a16.659,16.659,0,0,0,3.41-26.592C62.02,37.482,66.584,31.154,66.584,23.9Z" transform="translate(8.844 -4)" fill="#ed7678" stroke="#111" stroke-linecap="round" stroke-linejoin="round" stroke-width="2"/><path d="M50.4,22.547,39.637,36.324,28.878,22.547C24.1,16.422,30.074,8.769,39.637,8.769S55.178,16.422,50.4,22.547Z" transform="translate(13.24 -1.116)" fill="#df5759" stroke="#111" stroke-linecap="round" stroke-linejoin="round" stroke-width="2"/><line y1="21.431" transform="translate(52.877 35.208)" fill="none" stroke="#111" stroke-linecap="round" stroke-linejoin="round" stroke-width="2"/><path d="M66.1,33.664c-3.645,3.587-8.568,4.558-11,2.167S53.658,28.593,57.3,25s8.568-4.555,11-2.163S69.744,30.079,66.1,33.664Z" transform="translate(29.313 6.602)" fill="#df5759" stroke="#111" stroke-linecap="round" stroke-linejoin="round" stroke-width="2"/><path d="M45.608,8.241S53.383-.942,64.271,9.774c0,0,31.93-10,8.966,23.32" transform="translate(24.376 -3.65)" fill="none" stroke="#111" stroke-linecap="round" stroke-linejoin="round" stroke-width="2"/><path d="M9.878,33.664c3.645,3.587,8.568,4.558,11,2.167S22.32,28.593,18.676,25s-8.568-4.555-11-2.163S6.234,30.079,9.878,33.664Z" transform="translate(0.629 6.602)" fill="#df5759" stroke="#111" stroke-linecap="round" stroke-linejoin="round" stroke-width="2"/><path d="M37.936,8.241S30.16-.942,19.273,9.774c0,0-31.93-10-8.966,23.32" transform="translate(-2 -3.65)" fill="none" stroke="#111" stroke-linecap="round" stroke-linejoin="round" stroke-width="2"/></g></svg>