<svg xmlns="http://www.w3.org/2000/svg" xmlns:xlink="http://www.w3.org/1999/xlink" width="112" height="112" viewBox="0 0 112 112"><defs><clipPath id="a"><rect width="48.876" height="28.241" fill="#fe646f"/></clipPath></defs><g transform="translate(0 0.182)"><rect width="112" height="112" transform="translate(0 -0.182)" fill="#e50025" opacity="0"/><g transform="translate(7.987 3.103)"><path d="M41.919,45.283,62.1,30.742l2.752,4.209,3.238,1.781,5.5,1.457,3.238,1.943,1.133,3.885-1.133,3.076-3.238,4.857,3.238.811,4.7.971,6.314,2.59,3.076,2.43,2.914,3.4v5.666L92.7,72.838l-4.857,8.9-1.457.809-34.161-5.99V58.752Z" fill="#fffcfc"/><path d="M37.834,66.664,39.9,59.59l2.284-13.561,6.043,8.844L47.119,63.2l-2.284,6.928-1.916,1.547Z" fill="#fed2a4"/><path d="M39.16,62.743s-5.051-1.661-8.418,1.661l-6.735,3.323S20.639,72.711,39.16,71.05" transform="translate(7.809 34.041)" fill="#fed2a4" stroke="#111" stroke-linecap="round" stroke-linejoin="round" stroke-width="2"/><g transform="translate(46.969 76.848)"><g transform="translate(0 0)" clip-path="url(#a)"><path d="M6.735,0,40.408,6.645c16.835,9.968,3.367,21.6,3.367,21.6H0v-8.3l35.357-3.323H11.786C-1.684,14.952,5.051,0,5.051,0" transform="translate(0 0)" fill="#fe646f"/></g></g><path d="M42.027,67.5,75.7,74.149c16.835,9.968,3.367,21.6,3.367,21.6H35.292v-8.3l35.357-3.323H47.078C33.608,82.456,40.343,67.5,40.343,67.5V50.891l-10.1-14.95,20.2-14.952a11.4,11.4,0,0,0,6.735,6.645S74.016,29.3,62.231,42.586c0,0,35.355,3.323,13.469,29.9" transform="translate(11.676 9.345)" fill="none" stroke="#111" stroke-linecap="round" stroke-linejoin="round" stroke-width="2"/><path d="M33.205,43.027,19.613,59.191a4.1,4.1,0,0,0,.55,5.824,4.23,4.23,0,0,0,5.9-.543L39.657,48.308" transform="translate(4.75 22.51)" fill="#fed2a4" stroke="#111" stroke-linecap="round" stroke-linejoin="round" stroke-width="2"/><line y1="19.936" x2="3.367" transform="translate(38.551 45.285)" fill="none" stroke="#111" stroke-linecap="round" stroke-linejoin="round" stroke-width="2"/><line y1="14.952" x2="3.367" transform="translate(45.286 55.252)" fill="none" stroke="#111" stroke-linecap="round" stroke-linejoin="round" stroke-width="2"/><path d="M52.375,38.694s8.418-1.661,10.1,11.629" transform="translate(24.899 19.882)" fill="none" stroke="#111" stroke-linecap="round" stroke-linejoin="round" stroke-width="2"/><path d="M34.212,4.093S17.375-7.536,12.324,24.028c0,0,0,11.628,13.469,6.644" transform="translate(0.973 -2)" fill="#683b00" stroke="#111" stroke-linecap="round" stroke-linejoin="round" stroke-width="2"/><path d="M21.8,9.55,13.378,24.5l6.735-3.323" transform="translate(1.602 2.511)" fill="none" stroke="#111" stroke-linecap="round" stroke-linejoin="round" stroke-width="2"/><path d="M30.274,29.706a6.8,6.8,0,0,1-9.521-.267,6.583,6.583,0,0,1,.272-9.394" transform="translate(4.91 8.781)" fill="#fed2a4" stroke="#111" stroke-linecap="round" stroke-linejoin="round" stroke-width="2"/><path d="M19.945,19.852C15.359,17.717,10.667,16.9,8.124,17.8S5.3,21.282,7.4,24.3a49.232,49.232,0,0,0,4.582,5.1c1.63,1.705,3.156,3.476,3.616,4.966.613,1.978-.926,3.2-3.741,2.958,4.751,2.8,8.519,2.57,9.63,2.4,2.586-.392,3.716-1.932,3.679-3.954-.025-1.425-1.093-3.235-2.415-5.035s-2.906-3.637-4.112-5.419a3.92,3.92,0,0,1-.988-2.5c.155-.653,1.18-.929,2.574-.4" transform="translate(-6 7.226)" fill="#683b00" stroke="#111" stroke-linecap="round" stroke-linejoin="round" stroke-width="2"/><path d="M20.756,29.89,32.542,41.519l18.52-18.274L29.174,3.311S27.491,16.6,22.44,19.922Z" transform="translate(6.01 -1.216)" fill="#fed2a4" stroke="#111" stroke-linecap="round" stroke-linejoin="round" stroke-width="2"/><path d="M30.743,19.591a6.074,6.074,0,0,0,6.1-1.773,5.883,5.883,0,0,0,1.07-6.188" transform="translate(11.976 3.753)" fill="none" stroke="#111" stroke-linecap="round" stroke-linejoin="round" stroke-width="2"/><line y1="3.323" x2="3.367" transform="translate(36.867 13.722)" fill="none" stroke="#111" stroke-linecap="round" stroke-linejoin="round" stroke-width="2"/></g></g></svg>