<svg xmlns="http://www.w3.org/2000/svg" width="70" height="70" viewBox="0 0 70 70"><rect width="70" height="70" fill="#e50025" opacity="0"/><g transform="translate(3 2)"><path d="M14.065,3a24.95,24.95,0,0,1-1.04,21.85" transform="translate(-3.661 -3)" fill="none" stroke="#1a1718" stroke-linecap="round" stroke-linejoin="round" stroke-width="2"/><path d="M9.951,34S3.169,57.464,12.857,69.2" transform="translate(-3.879 -3.376)" fill="none" stroke="#1a1718" stroke-linecap="round" stroke-linejoin="round" stroke-width="2"/><path d="M4.025,27.185l10.308,9.277,5.154-5.154L10.21,21Z" transform="translate(-4.025 -1.879)" fill="#d9d9d9" stroke="#1a1718" stroke-linecap="round" stroke-linejoin="round" stroke-width="2"/><line x2="6" y2="7" transform="translate(13.087 31.967)" fill="none" stroke="#1a1718" stroke-linecap="round" stroke-linejoin="round" stroke-width="2"/><path d="M4.948,0,0,4.948" transform="translate(17.839 36.021)" fill="none" stroke="#1a1718" stroke-linecap="round" stroke-width="2"/><path d="M66.582,19.243l-10.4,9.364-5.2-5.2L60.339,13Z" transform="translate(-2.582 -2.716)" fill="#d9d9d9" stroke="#1a1718" stroke-linecap="round" stroke-linejoin="round" stroke-width="2"/><line x1="7.283" y2="7.283" transform="translate(43.299 23.693)" fill="none" stroke="#1a1718" stroke-linecap="round" stroke-linejoin="round" stroke-width="2"/><line x2="5.15" y2="5.15" transform="translate(40.266 28.853)" fill="none" stroke="#1a1718" stroke-linecap="round" stroke-linejoin="round" stroke-width="2"/><path d="M55.373,3s-2.783,7.731,0,15.461" transform="translate(-2.506 -3)" fill="none" stroke="#1a1718" stroke-linecap="round" stroke-linejoin="round" stroke-width="2"/><path d="M57.873,27s7.628,22.564-.848,40" transform="translate(-2.92 -1)" fill="none" stroke="#1a1718" stroke-linecap="round" stroke-linejoin="round" stroke-width="2"/><path d="M27.025,51l8.149,6.185,9.168-5.3" transform="translate(-3.327 -1.029)" fill="none" stroke="#1a1718" stroke-linecap="round" stroke-linejoin="round" stroke-width="2"/><line y2="9" transform="translate(32 56.604)" fill="none" stroke="#1a1718" stroke-linecap="round" stroke-linejoin="round" stroke-width="2"/></g></svg>