<svg xmlns="http://www.w3.org/2000/svg" width="76" height="76" viewBox="0 0 76 76"><rect width="76" height="76" fill="#8e72f2" opacity="0"/><path d="M-210.443,3177.547v7.583a5.058,5.058,0,0,1-5.045,5.075c-.16,0-.317,0-.476-.02a50.189,50.189,0,0,1-21.857-7.76,49.336,49.336,0,0,1-15.2-15.166,49.958,49.958,0,0,1-7.775-21.915,5.061,5.061,0,0,1,4.589-5.49c.15-.012.3-.02.451-.02h7.6a5.063,5.063,0,0,1,5.065,4.348,32.386,32.386,0,0,0,1.773,7.1,5.048,5.048,0,0,1-1.14,5.334l-3.216,3.209a40.469,40.469,0,0,0,15.2,15.166l3.216-3.209a5.07,5.07,0,0,1,5.344-1.138,32.61,32.61,0,0,0,7.117,1.77A5.057,5.057,0,0,1-210.443,3177.547Z" transform="translate(273.599 -3127.064)" fill="none" stroke="#fff" stroke-linecap="round" stroke-linejoin="round" stroke-width="2"/></svg>