<svg xmlns="http://www.w3.org/2000/svg" width="112" height="112" viewBox="0 0 112 112"><g transform="translate(0.047 0.046)"><rect width="112" height="112" transform="translate(-0.047 -0.046)" fill="#e50025" opacity="0"/><g transform="translate(3.187 3.188)"><path d="M46.347,8.689C54.177.625,67.091-.274,75.192,6.682s8.32,19.134.492,27.2" transform="translate(23.789 -2)" fill="#f1f1f1" stroke="#111" stroke-linecap="round" stroke-linejoin="round" stroke-width="2"/><path d="M30.023,48.015,19.018,79.946,2.651,96.566a1.631,1.631,0,0,0,0,2.283l5.7,5.79a1.571,1.571,0,0,0,2.248,0l16.367-16.62,31.459-11.18a1.6,1.6,0,0,0,.6-.383l41.519-42.161a1.632,1.632,0,0,0-.032-2.315L74.183,6.727a1.57,1.57,0,0,0-2.194.011L30.421,47.385A1.62,1.62,0,0,0,30.023,48.015Z" transform="translate(-2.184 0.09)" fill="#fff" stroke="#111" stroke-linecap="round" stroke-linejoin="round" stroke-width="2"/><path d="M27.953,0a1.6,1.6,0,0,0-.394.622l-10.9,31.521L.461,48.55a1.606,1.606,0,0,0,0,2.254L6.1,56.52a1.561,1.561,0,0,0,2.227,0l16.2-16.407L55.679,29.076a1.58,1.58,0,0,0,.593-.378" transform="translate(0.001 48.179)" fill="#fe646f" stroke="#111" stroke-width="2"/><line x2="28.007" y2="29.604" transform="translate(28.266 47.266)" fill="none" stroke="#111" stroke-miterlimit="10" stroke-width="2"/><path d="M34.341,47.828h0a6.645,6.645,0,0,1,.04-9.361L53.09,19.825a6.563,6.563,0,0,1,9.314.041,6.644,6.644,0,0,1-.041,9.361L43.656,47.867A6.562,6.562,0,0,1,34.341,47.828Z" transform="translate(14.449 7.728)" fill="#fff" stroke="#111" stroke-miterlimit="10" stroke-width="2"/><line x2="10" y2="9" transform="translate(58.766 36.765)" fill="none" stroke="#111" stroke-miterlimit="10" stroke-width="2"/></g></g></svg>