<svg xmlns="http://www.w3.org/2000/svg" width="70" height="70" viewBox="0 0 70 70"><rect width="70" height="70" fill="#e50025" opacity="0"/><path d="M41.652,17.354l-6.7,8.585-6.7-8.585c-2.979-3.816.745-8.585,6.7-8.585S44.632,13.538,41.652,17.354Z" fill="#d9d9d9" stroke="#111" stroke-linecap="round" stroke-linejoin="round" stroke-width="2"/><path d="M49,16.4C49,9.552,42.492,4,34.464,4S19.928,9.552,19.928,16.4c0,4.52,2.845,8.463,7.081,10.63a10.375,10.375,0,0,0-3.2,7.493,10.484,10.484,0,0,0,6.3,9.568V66h9.691V43.6a10.38,10.38,0,0,0,2.125-16.57C46.156,24.863,49,20.92,49,16.4Z" fill="none" stroke="#111" stroke-linecap="round" stroke-linejoin="round" stroke-width="2"/><line y1="13.354" transform="translate(34.948 25.939)" fill="none" stroke="#111" stroke-linecap="round" stroke-linejoin="round" stroke-width="2"/><path d="M61.453,29.091c-2.271,2.235-5.339,2.84-6.852,1.35s-.9-4.51,1.37-6.746,5.339-2.838,6.852-1.348S63.724,26.857,61.453,29.091Z" fill="#d9d9d9" stroke="#111" stroke-linecap="round" stroke-linejoin="round" stroke-width="2"/><path d="M45.608,6.861s4.845-5.722,11.629.955c0,0,19.9-6.23,5.587,14.531" fill="none" stroke="#111" stroke-linecap="round" stroke-linejoin="round" stroke-width="2"/><path d="M8.547,29.091c2.271,2.235,5.339,2.84,6.852,1.35s.9-4.51-1.37-6.746S8.69,20.857,7.177,22.347,6.276,26.857,8.547,29.091Z" fill="#d9d9d9" stroke="#111" stroke-linecap="round" stroke-linejoin="round" stroke-width="2"/><path d="M24.392,6.861s-4.845-5.722-11.629.955c0,0-19.9-6.23-5.587,14.531" fill="none" stroke="#111" stroke-linecap="round" stroke-linejoin="round" stroke-width="2"/></svg>