<svg xmlns="http://www.w3.org/2000/svg" width="112" height="112" viewBox="0 0 112 112"><g transform="translate(-0.5)"><rect width="112" height="112" transform="translate(0.5)" fill="#e50025" opacity="0"/><g transform="translate(1.607 8.036)"><path d="M11.29,7h-.084A9.3,9.3,0,0,0,2,16.4V29.157c0,16.8,13.338,30.419,29.793,30.419S61.586,45.957,61.586,29.157V16.4A9.3,9.3,0,0,0,52.38,7H51.244" transform="translate(-2 -1.742)" fill="none" stroke="#111" stroke-linecap="round" stroke-linejoin="round" stroke-width="2"/><path d="M17.639,14.515H12.381C9.961,14.515,8,12.162,8,9.258S9.961,4,12.381,4h5.258c2.42,0,4.381,2.354,4.381,5.258S20.059,14.515,17.639,14.515Z" transform="translate(2.515 -4)" fill="#7dd9c2" stroke="#111" stroke-linecap="round" stroke-linejoin="round" stroke-width="2"/><path d="M31.639,14.515H26.381c-2.42,0-4.381-2.354-4.381-5.258S23.961,4,26.381,4h5.258c2.42,0,4.381,2.354,4.381,5.258S34.059,14.515,31.639,14.515Z" transform="translate(14.585 -4)" fill="#7dd9c2" stroke="#111" stroke-linecap="round" stroke-linejoin="round" stroke-width="2"/><path d="M83.6,24V53.1c0,18.771-14.909,33.988-33.3,33.988S17,71.874,17,53.1V48.535" transform="translate(13.298 10.945)" fill="none" stroke="#111" stroke-linecap="round" stroke-linejoin="round" stroke-width="2"/><ellipse cx="12.857" cy="12.054" rx="12.857" ry="12.054" transform="translate(83.571 8.892)" fill="#7dd9c2" stroke="#111" stroke-linecap="round" stroke-linejoin="round" stroke-width="2"/></g></g></svg>