<svg xmlns="http://www.w3.org/2000/svg" width="40" height="40" viewBox="0 0 40 40"><circle cx="20" cy="20" r="20" fill="#999"/><g transform="translate(8 8)"><rect width="24" height="24" fill="#f55589" opacity="0"/><g transform="translate(3 4)"><path d="M3.333,10v4a2.652,2.652,0,0,0,3,3H7.76a2,2,0,0,1,1.06.3l2.923,1.827c2.525,1.578,4.59.433,4.59-2.544V7.413c0-2.977-2.065-4.122-4.59-2.544L8.82,6.7A2,2,0,0,1,7.76,7H6.333A2.652,2.652,0,0,0,3.333,10Z" transform="translate(-3.333 -4.16)" fill="none" stroke="#fff" stroke-width="2"/><path d="M19.333,8h0a6.666,6.666,0,0,1,0,8h0" transform="translate(-3.333 -4.16)" fill="none" stroke="#fff" stroke-linecap="round" stroke-linejoin="round" stroke-width="2"/></g></g></svg>