<svg xmlns="http://www.w3.org/2000/svg" width="70" height="70" viewBox="0 0 70 70"><rect width="70" height="70" fill="#e50025" opacity="0"/><g transform="translate(0.25)"><circle cx="18" cy="18" r="18" transform="translate(31.5 13)" fill="#d9d9d9" stroke="#111" stroke-linecap="round" stroke-linejoin="round" stroke-width="2"/><circle cx="4" cy="4" r="4" transform="translate(45.5 27.5)" fill="none" stroke="#111" stroke-linecap="round" stroke-linejoin="round" stroke-width="2"/><path d="M52.447,57.5v6.171a2.008,2.008,0,0,1-4,0V57.5" transform="translate(-0.947 -0.5)" fill="none" stroke="#111" stroke-linecap="round" stroke-linejoin="round" stroke-width="2"/><path d="M51.535,7.911C44.39,2.4,35.163,3.975,29.556,10.061,23.95,3.975,14.6,2.338,7.578,7.911S-.436,22.8,5.08,29.393c4.167,4.979,16,14.973,21.546,19.566a6.47,6.47,0,0,0,2.125,1.433,3.059,3.059,0,0,0,1.611,0,6.491,6.491,0,0,0,2.125-1.433" transform="translate(0.465 0.5)" fill="none" stroke="#111" stroke-linecap="round" stroke-linejoin="round" stroke-width="2"/><path d="M7.536,20.5s0-11,10-12" transform="translate(0.464 0.5)" fill="none" stroke="#111" stroke-linecap="round" stroke-linejoin="round" stroke-width="2"/><path d="M1,1V6.858A2.042,2.042,0,0,0,2.931,9H9.054A2.053,2.053,0,0,0,11,6.858V1" transform="translate(43.5 47.5)" fill="none" stroke="#1a1718" stroke-linecap="round" stroke-linejoin="round" stroke-width="2"/><line x2="4" transform="translate(32.5 31)" fill="none" stroke="#111" stroke-linecap="round" stroke-linejoin="round" stroke-width="2"/><line x2="4" transform="translate(63.5 31)" fill="none" stroke="#111" stroke-linecap="round" stroke-linejoin="round" stroke-width="2"/><line y1="4" transform="translate(49.5 13.5)" fill="none" stroke="#111" stroke-linecap="round" stroke-linejoin="round" stroke-width="2"/><line y1="4" transform="translate(49.5 44.5)" fill="none" stroke="#111" stroke-linecap="round" stroke-linejoin="round" stroke-width="2"/><line y1="5" x2="5" transform="translate(52.5 23.5)" fill="none" stroke="#111" stroke-linecap="round" stroke-linejoin="round" stroke-width="2"/></g></svg>