<svg xmlns="http://www.w3.org/2000/svg" width="112" height="113.001" viewBox="0 0 112 113.001"><rect width="112" height="112" fill="#e50025" opacity="0"/><g transform="translate(25.596 1.6)"><path d="M.4,71.453H60.587V18.623l-3.368-2.314H2.707L.4,18.623Z" fill="#fff"/><path d="M33.2,18l1.792-2.952A8.269,8.269,0,0,0,32.844,4.114a10.284,10.284,0,0,0-12.491,0,8.269,8.269,0,0,0-2.144,10.932L20,18" transform="translate(3.797 -2)" fill="none" stroke="#111" stroke-linecap="round" stroke-linejoin="round" stroke-width="2"/><path d="M5.16,32.017s14.59-4.078,20.5-3.466c6.729,2.447,14.07,5.3,14.07,5.3h5.709l8.767-1.835,11.419-5.1V49.961l-5.3,2.651-52-1.631s-2.243-3.059-2.243-3.67S5.16,32.017,5.16,32.017Z" transform="translate(-5.16 31.887)" fill="#d9d9d9"/><path d="M1.271,63.42l7.1-1.867,6.352-.871h4.857L26.8,62.424l6.476,2.367,5.106.746h5.729l3.736-1.369,4.982-2.615,7.6-2.865V82.477l-2.366,1.742H4.135l-2.864-.871L.15,79.113Z" fill="#7dd9c2"/><path d="M18.823,22.105,24.068,13l5.251,9.105a6.065,6.065,0,1,1-10.5,0Z" transform="translate(6.325 19.991)" fill="#7dd9c2" stroke="#111" stroke-linecap="round" stroke-linejoin="round" stroke-width="2"/><path d="M24.4,36.4h0a6.236,6.236,0,0,1-6.4-6.06V30H30.8v.339A6.236,6.236,0,0,1,24.4,36.4Z" transform="translate(5.997 54.787)" fill="#d9d9d9" stroke="#111" stroke-linecap="round" stroke-linejoin="round" stroke-width="2"/><line y2="19" transform="translate(30.404 91.401)" fill="none" stroke="#111" stroke-linecap="round" stroke-linejoin="round" stroke-width="2"/><path d="M11,26.2l11.549-2.435a26.133,26.133,0,0,1,16.633,2.041,26.154,26.154,0,0,0,22.475.109L70.344,22" transform="translate(-10.596 37.192)" fill="none" stroke="#111" stroke-linecap="round" stroke-linejoin="round" stroke-width="2"/><rect width="60" height="68" rx="3" transform="translate(0.404 16.401)" fill="none" stroke="#111" stroke-linecap="round" stroke-linejoin="round" stroke-width="2"/></g></svg>