<svg xmlns="http://www.w3.org/2000/svg" width="70" height="71.239" viewBox="0 0 70 71.239"><g transform="translate(0 0.239)"><rect width="70" height="70" fill="#e50025" opacity="0"/><g transform="translate(16.094 0.754)"><path d="M27.124,12l1.12-1.845A5.169,5.169,0,0,0,26.9,3.322a6.428,6.428,0,0,0-7.808,0,5.169,5.169,0,0,0-1.34,6.834L18.876,12" transform="translate(-4.094 -1.754)" fill="none" stroke="#111" stroke-linecap="round" stroke-linejoin="round" stroke-width="2"/><path d="M5.16,30.106s9.12-2.549,12.816-2.167c4.206,1.53,8.795,3.314,8.795,3.314H30.34l5.48-1.147,7.138-3.187v14.4l-3.313,1.657-32.5-1.02a12.026,12.026,0,0,1-1.4-2.294C5.74,39.283,5.16,30.106,5.16,30.106Z" transform="translate(-5.254 10.086)" fill="#d9d9d9"/><rect width="38" height="43" rx="3" transform="translate(-0.094 10.246)" fill="none" stroke="#111" stroke-linecap="round" stroke-linejoin="round" stroke-width="2"/><path d="M18.514,18.692,21.793,13l3.282,5.692a3.791,3.791,0,1,1-6.561,0Z" transform="translate(-2.888 7.869)" fill="#d9d9d9" stroke="#111" stroke-linecap="round" stroke-linejoin="round" stroke-width="2"/><path d="M22,34h0a3.9,3.9,0,0,1-4-3.788V30h8v.212A3.9,3.9,0,0,1,22,34Z" transform="translate(-3.093 23.246)" fill="#d9d9d9" stroke="#111" stroke-linecap="round" stroke-linejoin="round" stroke-width="2"/><line y2="12" transform="translate(18.906 57.246)" fill="none" stroke="#111" stroke-linecap="round" stroke-linejoin="round" stroke-width="2"/><path d="M11,24.626,18.2,23.1a16.256,16.256,0,0,1,10.37,1.276,16.268,16.268,0,0,0,14.013.068L48,22" transform="translate(-11.093 15.247)" fill="none" stroke="#111" stroke-linecap="round" stroke-linejoin="round" stroke-width="2"/></g></g></svg>