<svg xmlns="http://www.w3.org/2000/svg" xmlns:xlink="http://www.w3.org/1999/xlink" width="70" height="70" viewBox="0 0 70 70"><defs><clipPath id="a"><path d="M52.608,53.562C45.113,62,32.935,62,32.935,62A30,30,0,1,1,62.914,32s0,8.437-4.684,11.249" transform="translate(-2.957 -2)" fill="none" stroke="#111" stroke-linecap="round" stroke-linejoin="round" stroke-width="2"/></clipPath></defs><rect width="70" height="70" fill="#e50025" opacity="0"/><g transform="translate(0.043)"><g transform="translate(1.957 2)" clip-path="url(#a)"><path d="M0,20V18.765c0-1.831,1.78-8.749,3.974-8.749h.389c2.186,0,3.966-1.49,3.966-3.323V3.323C8.329,1.492,10.11,0,12.3,0h.389A4.376,4.376,0,0,1,15.5.974,3.071,3.071,0,0,1,16.66,3.321c0,1.831,1.77,3.323,3.966,3.323h.39c2.193,0,3.966,1.485,3.966,3.315v9" transform="translate(14.032 40)" fill="#d9d9d9"/></g><rect width="14" height="12" transform="translate(52.957 55)" fill="#d9d9d9"/><path d="M52.644,53.562C45.144,62,32.956,62,32.956,62a30,30,0,1,1,30-30s0,8.437-4.688,11.249" transform="translate(-1)" fill="none" stroke="#111" stroke-linecap="round" stroke-linejoin="round" stroke-width="2"/><path d="M9.73,12.789h5.627a3.983,3.983,0,0,1,4.125,3.81v.375a3.674,3.674,0,0,1-1.21,2.7,4.289,4.289,0,0,1-2.915,1.118,3.979,3.979,0,0,0-4.133,3.81v.374a3.979,3.979,0,0,0,4.133,3.81h4.19A3.987,3.987,0,0,1,23.681,32.6v.375a3.986,3.986,0,0,1-4.133,3.81H3.681" transform="translate(-0.681 0.211)" fill="none" stroke="#111" stroke-linecap="round" stroke-linejoin="round" stroke-width="2"/><path d="M56.535,46.848H54.752c-2.644,0-4.789-1.781-4.789-3.977v-.39c0-2.188-2.153-3.969-4.8-3.969H40.292c-2.644,0-4.8-1.782-4.8-3.97v-.39A3.653,3.653,0,0,1,36.9,31.341a5.328,5.328,0,0,1,3.391-1.164c2.644,0,4.8-1.774,4.8-3.969v-.391c0-2.195,2.145-3.969,4.789-3.969h9.617" transform="translate(-0.538 0.152)" fill="none" stroke="#111" stroke-linecap="round" stroke-linejoin="round" stroke-width="2"/><path d="M32.12,2h-1.5a4.273,4.273,0,0,0-2.939,1.17A3.932,3.932,0,0,0,26.468,6a4.078,4.078,0,0,0,4.155,4H44.4a4.252,4.252,0,0,0,2.938-1.169A3.973,3.973,0,0,0,48.468,6.8" transform="translate(-0.492)" fill="none" stroke="#111" stroke-linecap="round" stroke-linejoin="round" stroke-width="2"/><rect width="16" height="4" rx="1.884" transform="translate(51.957 43)" fill="none" stroke="#111" stroke-linecap="round" stroke-linejoin="round" stroke-width="2"/><path d="M55.5,48v1.046a.915.915,0,0,1-1.012.765h-.326c-1.469,0-2.659.9-2.659,2.007V65.992C51.507,67.1,52.7,68,54.166,68H64.848c1.469,0,2.659-.9,2.659-2.008V51.818c0-1.109-1.191-2.007-2.659-2.007h-.325c-.559,0-1.013-.343-1.013-.765V48" transform="translate(0.45)" fill="none" stroke="#111" stroke-linecap="round" stroke-linejoin="round" stroke-width="2"/><line x2="15" transform="translate(51.957 55)" fill="none" stroke="#111" stroke-linecap="round" stroke-linejoin="round" stroke-width="2"/><line y2="5" transform="translate(59.957 59)" fill="none" stroke="#111" stroke-linecap="round" stroke-linejoin="round" stroke-width="2"/><line x2="5" transform="translate(57.457 61.5)" fill="none" stroke="#111" stroke-linecap="round" stroke-linejoin="round" stroke-width="2"/><path d="M15.78,24H14.443a3.711,3.711,0,0,1-3.592-3.818v-.374A3.713,3.713,0,0,0,7.253,16H3.6A3.714,3.714,0,0,1,0,12.187v-.374a3.918,3.918,0,0,1,1.055-2.7A3.491,3.491,0,0,1,3.6,8a3.709,3.709,0,0,0,3.6-3.81V3.81A3.7,3.7,0,0,1,10.787,0H18" transform="translate(40.984 42) rotate(90)" fill="none" stroke="#111" stroke-linecap="round" stroke-linejoin="round" stroke-width="2"/></g></svg>