<svg xmlns="http://www.w3.org/2000/svg" width="54" height="54" viewBox="0 0 54 54"><g transform="translate(-318 -2157)"><rect width="54" height="54" transform="translate(318 2157)" fill="red" opacity="0"/><g transform="translate(320.84 2159.84)"><rect width="48" height="48" transform="translate(0.16 0.16)" fill="#e50025" opacity="0"/><g transform="translate(12.08 2.416)"><rect width="24" height="27" rx="3" transform="translate(0.08 6.744)" fill="none" stroke="#fff" stroke-linecap="round" stroke-linejoin="round" stroke-width="2"/><path d="M18.327,16.624,20.415,13l2.09,3.624a2.414,2.414,0,1,1-4.177,0Z" transform="translate(-8.336 0.288)" fill="none" stroke="#fff" stroke-linecap="round" stroke-linejoin="round" stroke-width="2"/><path d="M23.115,9.248l.676-1.337a4.253,4.253,0,0,0-.809-4.953,3.382,3.382,0,0,0-4.716,0,4.253,4.253,0,0,0-.809,4.953l.676,1.337" transform="translate(-8.544 -2)" fill="none" stroke="#fff" stroke-linecap="round" stroke-linejoin="round" stroke-width="2"/><path d="M20.416,32.416h0A2.354,2.354,0,0,1,18,30.128V30h4.832v.128A2.354,2.354,0,0,1,20.416,32.416Z" transform="translate(-8.336 3.824)" fill="none" stroke="#fff" stroke-linecap="round" stroke-linejoin="round" stroke-width="2"/><line y2="10" transform="translate(12.08 33.744)" fill="none" stroke="#fff" stroke-linecap="round" stroke-linejoin="round" stroke-width="2"/><path d="M11,23.586l4.232-.919a9.319,9.319,0,0,1,6.094.771,9.327,9.327,0,0,0,8.235.041L32.744,22" transform="translate(-9.792 2.16)" fill="none" stroke="#fff" stroke-linecap="round" stroke-linejoin="round" stroke-width="2"/></g></g></g></svg>